HIERARCHY
ROOT Hips
{
	OFFSET 0.000000 0.000000 0.000000
	CHANNELS 6 Xposition Yposition Zposition Zrotation Yrotation Xrotation 
	JOINT LHipJoint
	{
		OFFSET 0.000000 0.000000 0.000000
		CHANNELS 3 Zrotation Yrotation Xrotation
		JOINT LeftUpLeg
		{
			OFFSET 1.363060 -1.794630 0.839290
			CHANNELS 3 Zrotation Yrotation Xrotation
			JOINT LeftLeg
			{
				OFFSET 2.448110 -6.726130 0.000000
				CHANNELS 3 Zrotation Yrotation Xrotation
				JOINT LeftFoot
				{
					OFFSET 2.562200 -7.039590 0.000000
					CHANNELS 3 Zrotation Yrotation Xrotation
					JOINT LeftToeBase
					{
						OFFSET 0.157640 -0.433110 2.322550
						CHANNELS 3 Zrotation Yrotation Xrotation
						End Site
						{
							OFFSET 0.000000 0.000000 0.000000
						}
					}
				}
			}
		}
	}
	JOINT RHipJoint
	{
		OFFSET 0.000000 0.000000 0.000000
		CHANNELS 3 Zrotation Yrotation Xrotation
		JOINT RightUpLeg
		{
			OFFSET -1.305520 -1.794630 0.839290
			CHANNELS 3 Zrotation Yrotation Xrotation
			JOINT RightLeg
			{
				OFFSET -2.542530 -6.985550 0.000000
				CHANNELS 3 Zrotation Yrotation Xrotation
				JOINT RightFoot
				{
					OFFSET -2.568260 -7.056230 0.000000
					CHANNELS 3 Zrotation Yrotation Xrotation
					JOINT RightToeBase
					{
						OFFSET -0.164730 -0.452590 2.363150
						CHANNELS 3 Zrotation Yrotation Xrotation
						End Site
						{
							OFFSET 0.000000 0.000000 0.000000
						}
					}
				}
			}
		}
	}
	JOINT LowerBack
	{
		OFFSET 0.000000 0.000000 0.000000
		CHANNELS 3 Zrotation Yrotation Xrotation
		JOINT Spine
		{
			OFFSET 0.028270 2.035590 -0.193380
			CHANNELS 3 Zrotation Yrotation Xrotation
			JOINT Spine1
			{
				OFFSET 0.056720 2.048850 -0.042750
				CHANNELS 3 Zrotation Yrotation Xrotation
				JOINT Neck
				{
					OFFSET 0.000000 0.000000 0.000000
					CHANNELS 3 Zrotation Yrotation Xrotation
					JOINT Neck1
					{
						OFFSET -0.054170 1.746240 0.172020
						CHANNELS 3 Zrotation Yrotation Xrotation
						JOINT Head
						{
							OFFSET 0.104070 1.761360 -0.123970
							CHANNELS 3 Zrotation Yrotation Xrotation
							End Site
							{
								OFFSET 0.000000 0.000000 0.000000
							}
						}
					}
				}
				JOINT LeftShoulder
				{
					OFFSET 0.000000 0.000000 0.000000
					CHANNELS 3 Zrotation Yrotation Xrotation
					JOINT LeftArm
					{
						OFFSET 3.362410 1.200890 -0.311210
						CHANNELS 3 Zrotation Yrotation Xrotation
						JOINT LeftForeArm
						{
							OFFSET 4.983000 -0.000000 -0.000000
							CHANNELS 3 Zrotation Yrotation Xrotation
							JOINT LeftHand
							{
								OFFSET 3.483560 -0.000000 -0.000000
								CHANNELS 3 Zrotation Yrotation Xrotation
								JOINT LeftFingerBase
								{
									OFFSET 0.000000 0.000000 0.000000
									CHANNELS 3 Zrotation Yrotation Xrotation
									JOINT LeftHandIndex1
									{
										OFFSET 0.715260 -0.000000 -0.000000
										CHANNELS 3 Zrotation Yrotation Xrotation
										End Site
										{
											OFFSET 0.000000 0.000000 0.000000
										}
									}
								}
								JOINT LThumb
								{
									OFFSET 0.000000 0.000000 0.000000
									CHANNELS 3 Zrotation Yrotation Xrotation
									End Site
									{
										OFFSET 0.000000 0.000000 0.000000
									}
								}
							}
						}
					}
				}
				JOINT RightShoulder
				{
					OFFSET 0.000000 0.000000 0.000000
					CHANNELS 3 Zrotation Yrotation Xrotation
					JOINT RightArm
					{
						OFFSET -3.136600 1.374050 -0.404650
						CHANNELS 3 Zrotation Yrotation Xrotation
						JOINT RightForeArm
						{
							OFFSET -5.241900 -0.000000 -0.000000
							CHANNELS 3 Zrotation Yrotation Xrotation
							JOINT RightHand
							{
								OFFSET -3.444170 -0.000000 -0.000000
								CHANNELS 3 Zrotation Yrotation Xrotation
								JOINT RightFingerBase
								{
									OFFSET 0.000000 0.000000 0.000000
									CHANNELS 3 Zrotation Yrotation Xrotation
									JOINT RightHandIndex1
									{
										OFFSET -0.622530 -0.000000 -0.000000
										CHANNELS 3 Zrotation Yrotation Xrotation
										End Site
										{
											OFFSET 0.000000 0.000000 0.000000
										}
									}
								}
								JOINT RThumb
								{
									OFFSET 0.000000 0.000000 0.000000
									CHANNELS 3 Zrotation Yrotation Xrotation
									End Site
									{
										OFFSET 0.000000 0.000000 0.000000
									}
								}
							}
						}
					}
				}
			}
		}
	}
}
MOTION
Frames: 9
Frame Time: 0.008333
-5.310456 17.850708 4.541303 -82.265055 -81.860616 88.595567 -1.061846 -1.913101 -1.858369 -2.605665 -9.659147 -26.849984 0.105053 5.779893 14.783360 -1.684294 11.063274 5.481163 0.360600 -3.857700 -10.676700 0.465604 0.766437 -0.914747 32.471905 0.591666 2.568532 -0.377110 -5.960857 15.593839 0.707829 -6.856275 -9.722111 -0.078900 -1.811500 4.984900 6.351982 4.013103 -1.782910 1.087862 5.102151 -6.967518 1.525712 2.309774 -4.387347 -5.756985 1.971833 -4.172500 10.082475 3.743447 -5.975069 4.794700 1.883200 -0.110700 3.065976 3.875314 -0.549827 -44.354052 -49.218853 0.053716 55.509849 -57.606213 -27.844634 -1.364278 1.826022 -16.684706 5.363135 34.293535 3.288900 -7.125000 0.000000 0.000000 -29.517900 59.710900 -11.188700 -2.208421 -3.664339 -1.785487 77.219494 20.161478 29.363921 -21.610057 36.180009 -7.538677 -0.545479 0.093701 -4.409295 -16.553866 -31.053325 8.480700 7.125000 0.000000 0.000000 18.567500 -61.328700 -7.528400 
-5.443918 17.838838 4.560654 -84.764324 -81.925071 91.161904 -1.053019 -1.900013 -1.867310 -2.449382 -9.871134 -26.874737 0.065215 5.626687 14.321539 -1.784535 11.527529 5.465317 0.341800 -3.756600 -10.392800 0.481393 0.776918 -0.911299 32.332611 0.567812 2.914770 -0.392567 -6.007042 15.740481 0.687210 -6.763051 -9.813946 -0.057400 -1.546400 4.253700 6.438302 4.091032 -1.841851 1.074822 5.192184 -6.985694 1.490479 2.349663 -4.393319 -5.865928 1.879927 -3.876116 10.554181 3.729538 -7.006428 4.474800 1.854400 -0.484900 3.082421 3.879860 -0.542770 -44.957709 -48.457228 0.661535 55.923340 -57.740111 -28.155662 -1.322947 1.837889 -15.833576 5.691013 33.946700 3.426100 -7.125000 0.000000 0.000000 -28.894200 59.492200 -10.774000 -2.228401 -3.630300 -1.771845 77.447340 20.666773 30.001760 -21.972067 36.559740 -7.755142 -0.542704 0.089656 -4.639275 -16.284421 -30.845664 8.284000 7.125000 0.000000 0.000000 18.687800 -61.062800 -7.460800 
-5.579275 17.827167 4.580404 -87.150344 -81.973782 93.612747 -1.044495 -1.886679 -1.874980 -2.302490 -10.076791 -26.892679 0.032605 5.497109 13.928360 -1.877232 11.953441 5.446135 0.325100 -3.664600 -10.135000 0.495141 0.787347 -0.908882 32.188289 0.540770 3.252869 -0.410646 -6.061265 15.909886 0.668537 -6.675160 -9.881846 -0.039000 -1.274400 3.504100 6.521964 4.165888 -1.900851 1.061399 5.277143 -7.000965 1.457115 2.389256 -4.394009 -6.019291 1.811721 -3.560704 10.709540 3.709370 -8.056282 4.536000 1.820100 -0.879400 3.102483 3.873686 -0.533152 -45.660962 -47.614974 1.359247 56.351632 -57.878380 -28.478120 -1.282142 1.849560 -15.001277 6.030872 33.606552 3.566800 -7.125000 0.000000 0.000000 -28.270400 59.278600 -10.371100 -2.249530 -3.606809 -1.759751 77.679963 21.152106 30.625209 -22.334204 36.935323 -7.973663 -0.539693 0.085434 -4.871412 -15.995177 -30.647069 8.080500 7.125000 0.000000 0.000000 18.836900 -60.801100 -7.405300 
-5.716428 17.815696 4.600553 -89.402328 -82.009961 95.923346 -1.036737 -1.873407 -1.881276 -2.168187 -10.273953 -26.901934 0.006362 5.389612 13.599125 -1.960519 12.335627 5.430787 0.309300 -3.575300 -9.884900 0.506745 0.797446 -0.907443 32.038503 0.509929 3.581392 -0.431555 -6.124469 16.104925 0.651530 -6.591157 -9.923852 -0.023900 -0.997600 2.742300 6.602252 4.233948 -1.960916 1.048772 5.353531 -7.013398 1.426319 2.424848 -4.387166 -6.161465 1.744026 -3.255306 10.864099 3.686691 -9.084948 4.597100 1.783200 -1.263900 3.126112 3.866686 -0.522976 -46.456681 -46.693682 2.137141 56.793532 -58.020662 -28.810966 -1.241904 1.861253 -14.183863 6.382641 33.274244 3.711300 -7.125000 0.000000 0.000000 -27.646900 59.071100 -9.980300 -2.271156 -3.584142 -1.748295 77.915456 21.620265 31.232442 -22.695481 37.305774 -8.193361 -0.536524 0.081188 -5.107025 -15.691797 -30.454725 7.873000 7.125000 0.000000 0.000000 19.005900 -60.542700 -7.357300 
-5.855576 17.804525 4.621201 -91.493363 -82.037000 98.070595 -1.029931 -1.860499 -1.886261 -2.050155 -10.461558 -26.903759 -0.014173 5.303595 13.332084 -2.034326 12.675891 5.425904 0.294800 -3.491300 -9.649700 0.516393 0.806966 -0.906736 31.882168 0.475636 3.896737 -0.455781 -6.197911 16.329451 0.636398 -6.511897 -9.937899 -0.012200 -0.714300 1.963100 6.677437 4.294487 -2.021338 1.036726 5.420404 -7.023862 1.398000 2.455901 -4.375497 -6.291334 1.677192 -2.959931 11.016862 3.661670 -10.088981 4.657900 1.743800 -1.637500 3.153156 3.858606 -0.512262 -47.335914 -45.694121 2.984626 57.244954 -58.165620 -29.151046 -1.202271 1.873108 -13.378584 6.744079 32.951145 3.858400 -7.125000 0.000000 0.000000 -27.026000 58.870300 -9.602800 -2.293147 -3.562298 -1.737595 78.152820 22.069544 31.822830 -23.055304 37.670318 -8.414170 -0.533202 0.077037 -5.344248 -15.379079 -30.262212 7.662500 7.125000 0.000000 0.000000 19.184600 -60.282900 -7.310200 
-5.996619 17.793752 4.642247 -93.406394 -82.059751 100.035497 -1.024261 -1.848180 -1.890066 -1.953318 -10.640219 -26.897641 -0.029456 5.238108 13.124242 -2.100189 12.980846 5.427618 0.282100 -3.416200 -9.439700 0.524306 0.815739 -0.906701 31.717159 0.438477 4.196857 -0.483617 -6.282535 16.585633 0.623595 -6.437796 -9.920225 -0.004300 -0.425000 1.167900 6.744277 4.347037 -2.084652 1.025058 5.477292 -7.031917 1.373621 2.482235 -4.356928 -6.409458 1.610634 -2.675457 11.167920 3.633988 -11.067931 4.718200 1.701800 -2.000100 3.183524 3.849571 -0.500808 -48.291039 -44.622101 3.888577 57.700267 -58.311596 -29.494439 -1.163286 1.885353 -12.582916 7.113258 32.639425 4.007400 -7.125000 0.000000 0.000000 -26.411300 58.677700 -9.240400 -2.315570 -3.541408 -1.727616 78.389479 22.501758 32.394044 -23.413702 38.029428 -8.635993 -0.529719 0.072983 -5.583085 -15.057712 -30.069327 7.449600 7.125000 0.000000 0.000000 19.372200 -60.021800 -7.263700 
-6.139856 17.783378 4.663793 -95.134365 -82.081427 101.811055 -1.019652 -1.836608 -1.892623 -1.881681 -10.806010 -26.883359 -0.040014 5.192586 12.974465 -2.155978 13.241709 5.435097 0.270500 -3.345900 -9.243200 0.530671 0.823688 -0.907356 31.542537 0.398084 4.478854 -0.515570 -6.379214 16.876236 0.613895 -6.372628 -9.865035 -0.000400 -0.126300 0.347100 6.801472 4.390995 -2.149908 1.013879 5.523184 -7.037415 1.354227 2.503645 -4.331681 -6.516315 1.543792 -2.405148 11.315510 3.602480 -12.020295 4.777900 1.656900 -2.350800 3.217141 3.839560 -0.488421 -49.314199 -43.482356 4.834869 58.149258 -58.455994 -29.832959 -1.124831 1.897958 -11.793573 7.485737 32.331695 4.155400 -7.125000 0.000000 0.000000 -25.800500 58.486400 -8.887400 -2.338408 -3.521563 -1.718427 78.624383 22.917523 32.945058 -23.772104 38.384274 -8.859504 -0.526059 0.068973 -5.823509 -14.727788 -29.879415 7.235100 7.125000 0.000000 0.000000 19.570600 -59.762500 -7.219700 
-6.284988 17.773603 4.685637 -96.677355 -82.105681 103.397136 -1.015953 -1.825834 -1.893819 -1.839126 -10.954711 -26.862726 -0.046111 5.166708 12.882180 -2.200922 13.454705 5.449363 0.259700 -3.278700 -9.055800 0.535786 0.830791 -0.908517 31.357176 0.355590 4.738734 -0.552345 -6.489480 17.205617 0.607589 -6.317253 -9.768066 -0.000800 0.181200 -0.497900 6.846868 4.427304 -2.215852 1.002354 5.559788 -7.041567 1.338901 2.520630 -4.303196 -6.610311 1.476053 -2.149631 11.460901 3.566854 -12.939268 4.837000 1.609100 -2.687400 3.253769 3.828493 -0.475186 -50.398650 -42.278968 5.817526 58.582723 -58.596404 -30.159614 -1.086811 1.911140 -11.012864 7.863692 32.027482 4.303200 -7.125000 0.000000 0.000000 -25.190700 58.295500 -8.542300 -2.361573 -3.502659 -1.710161 78.856825 23.314723 33.469759 -24.129050 38.733250 -9.083924 -0.522197 0.065009 -6.062542 -14.386289 -29.693122 7.017600 7.125000 0.000000 0.000000 19.783700 -59.504900 -7.179500 
-6.432116 17.764526 4.707981 -98.020270 -82.135095 104.775831 -1.013266 -1.815986 -1.893698 -1.829046 -11.084886 -26.833717 -0.048173 5.159365 12.844758 -2.234500 13.618730 5.471144 0.249900 -3.216500 -8.882000 0.539769 0.836949 -0.910273 31.160571 0.307873 4.973548 -0.594457 -6.614586 17.577661 0.604924 -6.271855 -9.625958 -0.005900 0.494300 -1.358300 6.879944 4.454427 -2.281575 0.991039 5.585375 -7.043448 1.329202 2.532574 -4.269815 -6.694608 1.406778 -1.913705 11.604998 3.526510 -13.823237 4.896300 1.558400 -3.008500 3.293373 3.816509 -0.460847 -51.536988 -41.018486 6.821987 58.987924 -58.730158 -30.464445 -1.048743 1.925133 -10.239930 8.251566 31.721216 4.452000 -7.125000 0.000000 0.000000 -24.573700 58.101600 -8.199600 -2.385165 -3.484589 -1.702781 79.083399 23.699351 33.971188 -24.483099 39.075343 -9.308106 -0.518129 0.061039 -6.306036 -14.038401 -29.513010 6.800500 7.125000 0.000000 0.000000 20.007000 -59.252700 -7.143000 
